<svg xmlns="http://www.w3.org/2000/svg" xmlns:xlink="http://www.w3.org/1999/xlink" width="1000" zoomAndPan="magnify" viewBox="0 0 750 374.999991" height="500" preserveAspectRatio="xMidYMid meet" version="1.2"><defs/><g id="43006d5e7e"><g style="fill:#3b2f24;fill-opacity:1;"><g transform="translate(4.388398, 175.363042)"><path style="stroke:none" d="M 90.6875 -48.90625 C 94.488281 -50 97.78125 -49.863281 100.5625 -48.5 C 103.351562 -47.144531 105.53125 -45.109375 107.09375 -42.390625 C 108.65625 -39.671875 109.46875 -36.75 109.53125 -33.625 C 109.601562 -30.5 108.789062 -27.609375 107.09375 -24.953125 C 105.394531 -22.304688 102.644531 -20.507812 98.84375 -19.5625 C 91.914062 -17.519531 84.816406 -16.023438 77.546875 -15.078125 C 70.273438 -14.128906 63.070312 -14.09375 55.9375 -14.96875 C 48.8125 -15.851562 41.984375 -18.132812 35.453125 -21.8125 C 27.035156 -26.695312 20.617188 -33.347656 16.203125 -41.765625 C 11.785156 -50.191406 9.78125 -59.234375 10.1875 -68.890625 C 10.726562 -78.398438 13.101562 -87.535156 17.3125 -96.296875 C 21.53125 -105.054688 27.132812 -112.765625 34.125 -119.421875 C 41.125 -126.078125 49.070312 -131.207031 57.96875 -134.8125 C 66.875 -138.414062 76.148438 -139.875 85.796875 -139.1875 C 89.734375 -138.78125 92.890625 -137.457031 95.265625 -135.21875 C 97.648438 -132.976562 99.210938 -130.328125 99.953125 -127.265625 C 100.703125 -124.210938 100.703125 -121.191406 99.953125 -118.203125 C 99.210938 -115.210938 97.648438 -112.765625 95.265625 -110.859375 C 92.890625 -108.960938 89.734375 -108.21875 85.796875 -108.625 C 78.734375 -109.164062 72.039062 -107.835938 65.71875 -104.640625 C 59.40625 -101.453125 54.070312 -97.003906 49.71875 -91.296875 C 45.375 -85.585938 42.59375 -79.269531 41.375 -72.34375 C 40.144531 -66.09375 40.445312 -61.097656 42.28125 -57.359375 C 44.125 -53.628906 46.878906 -50.878906 50.546875 -49.109375 C 54.210938 -47.347656 58.390625 -46.265625 63.078125 -45.859375 C 67.765625 -45.453125 72.519531 -45.585938 77.34375 -46.265625 C 82.164062 -46.941406 86.613281 -47.820312 90.6875 -48.90625 Z M 90.6875 -48.90625 "/></g></g><g style="fill:#3b2f24;fill-opacity:1;"><g transform="translate(107.487845, 175.363042)"><path style="stroke:none" d="M 87.421875 -142.453125 C 88.109375 -146.253906 89.671875 -149.035156 92.109375 -150.796875 C 94.554688 -152.566406 97.304688 -153.453125 100.359375 -153.453125 C 103.421875 -153.453125 106.34375 -152.632812 109.125 -151 C 111.914062 -149.375 114.09375 -147.132812 115.65625 -144.28125 C 117.21875 -141.4375 117.59375 -138.109375 116.78125 -134.296875 C 109.4375 -96.796875 104.40625 -59.023438 101.6875 -20.984375 C 101.414062 -17.179688 100.160156 -14.09375 97.921875 -11.71875 C 95.679688 -9.34375 93 -7.742188 89.875 -6.921875 C 86.75 -6.109375 83.722656 -6.109375 80.796875 -6.921875 C 77.878906 -7.742188 75.46875 -9.304688 73.5625 -11.609375 C 71.664062 -13.921875 70.851562 -17.046875 71.125 -20.984375 C 71.53125 -27.367188 72.039062 -33.753906 72.65625 -40.140625 C 73.269531 -46.523438 73.914062 -52.914062 74.59375 -59.3125 L 46.671875 -59.3125 C 45.722656 -51.15625 44.769531 -43.035156 43.8125 -34.953125 C 42.863281 -26.867188 41.914062 -18.816406 40.96875 -10.796875 C 40.414062 -6.859375 38.984375 -3.734375 36.671875 -1.421875 C 34.367188 0.878906 31.65625 2.40625 28.53125 3.15625 C 25.40625 3.90625 22.347656 3.90625 19.359375 3.15625 C 16.367188 2.40625 13.988281 0.878906 12.21875 -1.421875 C 10.457031 -3.734375 9.847656 -6.859375 10.390625 -10.796875 C 11.617188 -21.941406 12.910156 -33.117188 14.265625 -44.328125 C 15.617188 -55.535156 16.910156 -66.773438 18.140625 -78.046875 C 18.816406 -83.347656 19.457031 -88.71875 20.0625 -94.15625 C 20.675781 -99.59375 21.328125 -105.023438 22.015625 -110.453125 C 22.554688 -115.210938 22.992188 -120.238281 23.328125 -125.53125 C 23.671875 -130.832031 24.726562 -135.726562 26.5 -140.21875 C 27.851562 -143.882812 29.921875 -146.566406 32.703125 -148.265625 C 35.492188 -149.960938 38.484375 -150.773438 41.671875 -150.703125 C 44.867188 -150.640625 47.828125 -149.828125 50.546875 -148.265625 C 53.265625 -146.703125 55.195312 -144.5625 56.34375 -141.84375 C 57.5 -139.125 57.332031 -135.863281 55.84375 -132.0625 C 54.207031 -127.707031 53.253906 -122.914062 52.984375 -117.6875 C 52.710938 -112.457031 52.304688 -107.535156 51.765625 -102.921875 C 51.492188 -100.742188 51.222656 -98.566406 50.953125 -96.390625 C 50.679688 -94.222656 50.410156 -92.050781 50.140625 -89.875 L 78.46875 -89.875 C 79.6875 -98.570312 81.039062 -107.332031 82.53125 -116.15625 C 84.03125 -124.988281 85.660156 -133.753906 87.421875 -142.453125 Z M 87.421875 -142.453125 "/></g></g><g style="fill:#3b2f24;fill-opacity:1;"><g transform="translate(218.126648, 175.363042)"><path style="stroke:none" d="M 105.5625 -89.0625 C 105.96875 -75.613281 106.304688 -62.09375 106.578125 -48.5 C 106.859375 -34.914062 107.203125 -21.332031 107.609375 -7.75 C 107.742188 -3.800781 106.789062 -0.640625 104.75 1.734375 C 102.707031 4.109375 100.191406 5.671875 97.203125 6.421875 C 94.222656 7.171875 91.203125 7.171875 88.140625 6.421875 C 85.085938 5.671875 82.503906 4.109375 80.390625 1.734375 C 78.285156 -0.640625 77.164062 -3.800781 77.03125 -7.75 C 76.894531 -11.820312 76.789062 -15.859375 76.71875 -19.859375 C 76.65625 -23.867188 76.554688 -27.914062 76.421875 -32 L 45.859375 -33.21875 C 44.765625 -28.050781 43.742188 -22.921875 42.796875 -17.828125 C 41.847656 -12.734375 40.894531 -7.609375 39.9375 -2.453125 C 39.257812 1.492188 37.734375 4.347656 35.359375 6.109375 C 32.984375 7.878906 30.234375 8.726562 27.109375 8.65625 C 23.984375 8.59375 21.023438 7.78125 18.234375 6.21875 C 15.453125 4.65625 13.28125 2.445312 11.71875 -0.40625 C 10.15625 -3.257812 9.710938 -6.65625 10.390625 -10.59375 C 12.835938 -23.90625 15.585938 -37.082031 18.640625 -50.125 C 21.703125 -63.175781 26.019531 -75.882812 31.59375 -88.25 C 34.3125 -94.363281 37.773438 -100.953125 41.984375 -108.015625 C 46.191406 -115.078125 50.976562 -121.5625 56.34375 -127.46875 C 61.71875 -133.382812 67.664062 -137.703125 74.1875 -140.421875 C 80.300781 -142.992188 85.257812 -143.460938 89.0625 -141.828125 C 92.863281 -140.203125 95.847656 -137.285156 98.015625 -133.078125 C 100.191406 -128.867188 101.789062 -124.007812 102.8125 -118.5 C 103.832031 -113 104.507812 -107.597656 104.84375 -102.296875 C 105.1875 -97.003906 105.425781 -92.59375 105.5625 -89.0625 Z M 54.203125 -63.375 C 57.878906 -63.238281 61.484375 -63.101562 65.015625 -62.96875 C 68.546875 -62.832031 72.078125 -62.695312 75.609375 -62.5625 C 75.472656 -67.050781 75.367188 -71.5 75.296875 -75.90625 C 75.234375 -80.320312 75.132812 -84.707031 75 -89.0625 C 74.863281 -90.820312 74.796875 -92.6875 74.796875 -94.65625 C 74.796875 -96.632812 74.796875 -98.640625 74.796875 -100.671875 C 72.484375 -97.953125 70.515625 -95.375 68.890625 -92.9375 C 66.171875 -88.851562 63.6875 -84.601562 61.4375 -80.1875 C 59.195312 -75.78125 57.195312 -71.332031 55.4375 -66.84375 C 55.300781 -66.300781 55.128906 -65.722656 54.921875 -65.109375 C 54.722656 -64.503906 54.484375 -63.925781 54.203125 -63.375 Z M 54.203125 -63.375 "/></g></g><g style="fill:#3b2f24;fill-opacity:1;"><g transform="translate(319.188439, 175.363042)"><path style="stroke:none" d="M 82.328125 -138.984375 C 88.847656 -136.410156 94.789062 -132.945312 100.15625 -128.59375 C 105.53125 -124.25 109.878906 -119.289062 113.203125 -113.71875 C 116.535156 -108.144531 118.4375 -102.097656 118.90625 -95.578125 C 119.382812 -89.054688 117.992188 -82.265625 114.734375 -75.203125 C 110.523438 -66.503906 104.679688 -59.640625 97.203125 -54.609375 C 89.734375 -49.585938 81.476562 -46.328125 72.4375 -44.828125 C 63.40625 -43.335938 54.476562 -43.679688 45.65625 -45.859375 C 44.832031 -38.109375 44.015625 -30.359375 43.203125 -22.609375 C 42.390625 -14.867188 41.578125 -7.128906 40.765625 0.609375 C 40.347656 4.546875 39.019531 7.671875 36.78125 9.984375 C 34.539062 12.296875 31.859375 13.859375 28.734375 14.671875 C 25.609375 15.484375 22.550781 15.484375 19.5625 14.671875 C 16.570312 13.859375 14.191406 12.296875 12.421875 9.984375 C 10.660156 7.671875 9.914062 4.546875 10.1875 0.609375 C 12.09375 -17.597656 13.925781 -35.867188 15.6875 -54.203125 C 17.457031 -72.546875 19.363281 -90.820312 21.40625 -109.03125 C 22.351562 -116.226562 24.320312 -122.710938 27.3125 -128.484375 C 30.300781 -134.265625 35.394531 -138.515625 42.59375 -141.234375 C 48.976562 -143.679688 55.664062 -144.53125 62.65625 -143.78125 C 69.65625 -143.03125 76.210938 -141.429688 82.328125 -138.984375 Z M 48.703125 -76.625 C 52.097656 -75.675781 55.96875 -75.097656 60.3125 -74.890625 C 64.664062 -74.691406 68.945312 -75.132812 73.15625 -76.21875 C 77.375 -77.300781 80.910156 -79.164062 83.765625 -81.8125 C 86.617188 -84.46875 88.25 -88.175781 88.65625 -92.9375 C 88.925781 -95.925781 87.90625 -98.773438 85.59375 -101.484375 C 83.28125 -104.203125 80.289062 -106.613281 76.625 -108.71875 C 72.957031 -110.832031 69.289062 -112.328125 65.625 -113.203125 C 61.957031 -114.085938 58.832031 -114.125 56.25 -113.3125 C 54.75 -112.90625 53.828125 -112.632812 53.484375 -112.5 C 53.148438 -112.363281 52.984375 -112.054688 52.984375 -111.578125 C 52.984375 -111.097656 52.644531 -110.25 51.96875 -109.03125 C 51.15625 -107.125 50.75 -104.675781 50.75 -101.6875 C 50.75 -98.707031 50.679688 -96.128906 50.546875 -93.953125 C 50.273438 -91.097656 49.96875 -88.207031 49.625 -85.28125 C 49.28125 -82.363281 48.972656 -79.476562 48.703125 -76.625 Z M 48.703125 -76.625 "/></g></g><g style="fill:#3b2f24;fill-opacity:1;"><g transform="translate(431.661043, 175.363042)"><path style="stroke:none" d="M 92.9375 -140.015625 C 96.738281 -139.460938 99.789062 -138.03125 102.09375 -135.71875 C 104.40625 -133.414062 105.96875 -130.703125 106.78125 -127.578125 C 107.601562 -124.453125 107.601562 -121.394531 106.78125 -118.40625 C 105.96875 -115.414062 104.40625 -113.070312 102.09375 -111.375 C 99.789062 -109.675781 96.738281 -109.03125 92.9375 -109.4375 C 86.6875 -110.25 80.160156 -110.859375 73.359375 -111.265625 C 72.410156 -96.460938 71.492188 -81.65625 70.609375 -66.84375 C 69.734375 -52.03125 68.816406 -37.15625 67.859375 -22.21875 C 67.722656 -18.40625 66.535156 -15.3125 64.296875 -12.9375 C 62.054688 -10.5625 59.40625 -8.960938 56.34375 -8.140625 C 53.289062 -7.328125 50.269531 -7.328125 47.28125 -8.140625 C 44.289062 -8.960938 41.84375 -10.523438 39.9375 -12.828125 C 38.039062 -15.140625 37.160156 -18.269531 37.296875 -22.21875 C 38.242188 -37.15625 39.160156 -52.0625 40.046875 -66.9375 C 40.929688 -81.820312 41.847656 -96.738281 42.796875 -111.6875 C 36.679688 -111.40625 30.703125 -110.992188 24.859375 -110.453125 C 20.921875 -110.046875 17.757812 -110.757812 15.375 -112.59375 C 13 -114.425781 11.4375 -116.835938 10.6875 -119.828125 C 9.945312 -122.816406 9.984375 -125.835938 10.796875 -128.890625 C 11.617188 -131.953125 13.179688 -134.640625 15.484375 -136.953125 C 17.796875 -139.265625 20.921875 -140.625 24.859375 -141.03125 C 47.546875 -143.332031 70.238281 -142.992188 92.9375 -140.015625 Z M 92.9375 -140.015625 "/></g></g><g style="fill:#3b2f24;fill-opacity:1;"><g transform="translate(532.519077, 175.363042)"><path style="stroke:none" d="M 84.984375 -43 C 88.921875 -42.863281 92.078125 -41.707031 94.453125 -39.53125 C 96.835938 -37.363281 98.398438 -34.75 99.140625 -31.6875 C 99.890625 -28.632812 99.890625 -25.613281 99.140625 -22.625 C 98.398438 -19.632812 96.835938 -17.15625 94.453125 -15.1875 C 92.078125 -13.21875 88.921875 -12.300781 84.984375 -12.4375 C 75.742188 -12.84375 66.503906 -12.804688 57.265625 -12.328125 C 48.023438 -11.847656 38.785156 -10.863281 29.546875 -9.375 C 26.691406 -8.96875 23.703125 -9.269531 20.578125 -10.28125 C 17.453125 -11.300781 14.835938 -12.96875 12.734375 -15.28125 C 10.628906 -17.59375 9.847656 -20.582031 10.390625 -24.25 C 12.703125 -43 15.25 -61.75 18.03125 -80.5 C 20.820312 -99.25 23.847656 -118 27.109375 -136.75 C 27.515625 -139.0625 28.328125 -141.03125 29.546875 -142.65625 C 30.640625 -144.5625 32.203125 -146.160156 34.234375 -147.453125 C 36.273438 -148.742188 38.789062 -149.457031 41.78125 -149.59375 C 56.445312 -150 71.117188 -149.722656 85.796875 -148.765625 C 89.734375 -148.492188 92.890625 -147.238281 95.265625 -145 C 97.648438 -142.757812 99.210938 -140.109375 99.953125 -137.046875 C 100.703125 -133.992188 100.703125 -130.972656 99.953125 -127.984375 C 99.210938 -124.992188 97.648438 -122.546875 95.265625 -120.640625 C 92.890625 -118.742188 89.734375 -117.929688 85.796875 -118.203125 C 75.742188 -118.878906 65.488281 -119.21875 55.03125 -119.21875 C 54.34375 -115.28125 53.660156 -111.335938 52.984375 -107.390625 C 52.304688 -103.453125 51.695312 -99.515625 51.15625 -95.578125 C 56.726562 -95.441406 62.09375 -95.101562 67.25 -94.5625 C 71.320312 -94.15625 74.882812 -92.625 77.9375 -89.96875 C 81 -87.320312 82.53125 -83.757812 82.53125 -79.28125 C 82.53125 -76.695312 81.816406 -74.179688 80.390625 -71.734375 C 78.972656 -69.285156 77.109375 -67.3125 74.796875 -65.8125 C 72.484375 -64.320312 69.96875 -63.71875 67.25 -64 C 60.320312 -64.675781 53.394531 -65.015625 46.46875 -65.015625 C 45.925781 -61.210938 45.378906 -57.335938 44.828125 -53.390625 C 44.285156 -49.453125 43.742188 -45.582031 43.203125 -41.78125 C 50.128906 -42.457031 57.054688 -42.894531 63.984375 -43.09375 C 70.921875 -43.300781 77.921875 -43.269531 84.984375 -43 Z M 84.984375 -43 "/></g></g><g style="fill:#3b2f24;fill-opacity:1;"><g transform="translate(626.449122, 175.363042)"><path style="stroke:none" d="M 115.953125 -19.15625 C 118.265625 -15.894531 119.21875 -12.800781 118.8125 -9.875 C 118.40625 -6.957031 117.113281 -4.410156 114.9375 -2.234375 C 112.769531 -0.0664062 110.15625 1.457031 107.09375 2.34375 C 104.039062 3.226562 100.914062 3.226562 97.71875 2.34375 C 94.53125 1.457031 91.78125 -0.546875 89.46875 -3.671875 C 83.351562 -12.085938 76.523438 -19.828125 68.984375 -26.890625 C 61.441406 -33.960938 53.320312 -40.351562 44.625 -46.0625 C 43.945312 -38.039062 43.300781 -29.988281 42.6875 -21.90625 C 42.082031 -13.820312 41.441406 -5.773438 40.765625 2.234375 C 40.492188 6.179688 39.234375 9.304688 36.984375 11.609375 C 34.742188 13.921875 32.0625 15.484375 28.9375 16.296875 C 25.8125 17.117188 22.785156 17.15625 19.859375 16.40625 C 16.941406 15.65625 14.53125 14.09375 12.625 11.71875 C 10.726562 9.34375 9.914062 6.179688 10.1875 2.234375 C 11.414062 -12.566406 12.367188 -27.644531 13.046875 -43 C 13.722656 -58.351562 15.554688 -73.367188 18.546875 -88.046875 C 20.035156 -95.648438 22.816406 -102.984375 26.890625 -110.046875 C 30.972656 -117.109375 36.171875 -122.945312 42.484375 -127.5625 C 48.804688 -132.1875 56.179688 -134.707031 64.609375 -135.125 C 70.441406 -135.394531 75.972656 -134.304688 81.203125 -131.859375 C 86.441406 -129.410156 90.894531 -126.007812 94.5625 -121.65625 C 98.226562 -117.3125 100.707031 -112.421875 102 -106.984375 C 103.289062 -101.554688 102.984375 -95.921875 101.078125 -90.078125 C 99.179688 -84.234375 96.09375 -78.726562 91.8125 -73.5625 C 87.53125 -68.40625 82.601562 -63.925781 77.03125 -60.125 C 91.570312 -48.300781 104.546875 -34.644531 115.953125 -19.15625 Z M 61.34375 -87.015625 C 62.15625 -87.835938 63.507812 -89.097656 65.40625 -90.796875 C 67.3125 -92.492188 69.007812 -94.289062 70.5 -96.1875 C 72 -98.09375 72.613281 -99.585938 72.34375 -100.671875 C 71.800781 -103.523438 70.75 -105.085938 69.1875 -105.359375 C 67.625 -105.628906 65.859375 -105.1875 63.890625 -104.03125 C 61.921875 -102.882812 59.984375 -101.320312 58.078125 -99.34375 C 56.179688 -97.375 54.550781 -95.503906 53.1875 -93.734375 C 51.832031 -91.972656 50.953125 -90.6875 50.546875 -89.875 C 49.453125 -86.75 48.5 -83.351562 47.6875 -79.6875 C 50.40625 -80.09375 52.847656 -80.941406 55.015625 -82.234375 C 57.191406 -83.523438 59.300781 -85.117188 61.34375 -87.015625 Z M 61.34375 -87.015625 "/></g></g><g style="fill:#3b2f24;fill-opacity:1;"><g transform="translate(74.179255, 334.884998)"><path style="stroke:none" d="M 76.015625 -88.046875 C 83.617188 -82.878906 89.628906 -76.148438 94.046875 -67.859375 C 98.460938 -59.578125 100.195312 -50.75 99.25 -41.375 C 98.300781 -33.21875 95.515625 -26.21875 90.890625 -20.375 C 86.273438 -14.53125 80.601562 -9.976562 73.875 -6.71875 C 67.144531 -3.457031 60.007812 -1.65625 52.46875 -1.3125 C 44.9375 -0.976562 37.703125 -2.238281 30.765625 -5.09375 C 23.835938 -7.945312 18 -12.566406 13.25 -18.953125 C 10.800781 -22.078125 9.78125 -25.097656 10.1875 -28.015625 C 10.59375 -30.941406 11.847656 -33.488281 13.953125 -35.65625 C 16.066406 -37.832031 18.6875 -39.363281 21.8125 -40.25 C 24.9375 -41.132812 28.09375 -41.164062 31.28125 -40.34375 C 34.476562 -39.53125 37.226562 -37.5625 39.53125 -34.4375 C 40.625 -32.945312 42.664062 -32.097656 45.65625 -31.890625 C 48.644531 -31.691406 51.628906 -31.828125 54.609375 -32.296875 C 57.597656 -32.773438 59.707031 -33.285156 60.9375 -33.828125 C 63.789062 -35.191406 65.929688 -37.195312 67.359375 -39.84375 C 68.785156 -42.488281 69.296875 -45.375 68.890625 -48.5 C 68.472656 -52.300781 67.109375 -55.425781 64.796875 -57.875 C 62.492188 -60.320312 59.742188 -62.460938 56.546875 -64.296875 C 53.359375 -66.128906 50.132812 -67.894531 46.875 -69.59375 C 43.613281 -71.289062 40.757812 -73.160156 38.3125 -75.203125 C 31.519531 -81.179688 27.375 -87.664062 25.875 -94.65625 C 24.382812 -101.65625 24.894531 -108.65625 27.40625 -115.65625 C 29.925781 -122.65625 33.832031 -129.003906 39.125 -134.703125 C 44.425781 -140.410156 50.472656 -144.828125 57.265625 -147.953125 C 60.929688 -149.722656 64.328125 -150.195312 67.453125 -149.375 C 70.578125 -148.5625 73.257812 -147.035156 75.5 -144.796875 C 77.75 -142.554688 79.28125 -139.941406 80.09375 -136.953125 C 80.90625 -133.960938 80.765625 -131.070312 79.671875 -128.28125 C 78.585938 -125.5 76.28125 -123.296875 72.75 -121.671875 C 70.445312 -120.578125 67.765625 -119.078125 64.703125 -117.171875 C 61.648438 -115.273438 59.132812 -113 57.15625 -110.34375 C 55.1875 -107.695312 54.816406 -104.742188 56.046875 -101.484375 C 56.722656 -99.316406 58.316406 -97.453125 60.828125 -95.890625 C 63.347656 -94.328125 66.03125 -92.929688 68.875 -91.703125 C 71.726562 -90.484375 74.109375 -89.265625 76.015625 -88.046875 Z M 76.015625 -88.046875 "/></g></g><g style="fill:#3b2f24;fill-opacity:1;"><g transform="translate(167.090421, 334.884998)"><path style="stroke:none" d="M 92.9375 -140.015625 C 96.738281 -139.460938 99.789062 -138.03125 102.09375 -135.71875 C 104.40625 -133.414062 105.96875 -130.703125 106.78125 -127.578125 C 107.601562 -124.453125 107.601562 -121.394531 106.78125 -118.40625 C 105.96875 -115.414062 104.40625 -113.070312 102.09375 -111.375 C 99.789062 -109.675781 96.738281 -109.03125 92.9375 -109.4375 C 86.6875 -110.25 80.160156 -110.859375 73.359375 -111.265625 C 72.410156 -96.460938 71.492188 -81.65625 70.609375 -66.84375 C 69.734375 -52.03125 68.816406 -37.15625 67.859375 -22.21875 C 67.722656 -18.40625 66.535156 -15.3125 64.296875 -12.9375 C 62.054688 -10.5625 59.40625 -8.960938 56.34375 -8.140625 C 53.289062 -7.328125 50.269531 -7.328125 47.28125 -8.140625 C 44.289062 -8.960938 41.84375 -10.523438 39.9375 -12.828125 C 38.039062 -15.140625 37.160156 -18.269531 37.296875 -22.21875 C 38.242188 -37.15625 39.160156 -52.0625 40.046875 -66.9375 C 40.929688 -81.820312 41.847656 -96.738281 42.796875 -111.6875 C 36.679688 -111.40625 30.703125 -110.992188 24.859375 -110.453125 C 20.921875 -110.046875 17.757812 -110.757812 15.375 -112.59375 C 13 -114.425781 11.4375 -116.835938 10.6875 -119.828125 C 9.945312 -122.816406 9.984375 -125.835938 10.796875 -128.890625 C 11.617188 -131.953125 13.179688 -134.640625 15.484375 -136.953125 C 17.796875 -139.265625 20.921875 -140.625 24.859375 -141.03125 C 47.546875 -143.332031 70.238281 -142.992188 92.9375 -140.015625 Z M 92.9375 -140.015625 "/></g></g><g style="fill:#3b2f24;fill-opacity:1;"><g transform="translate(267.948455, 334.884998)"><path style="stroke:none" d="M 115.953125 -19.15625 C 118.265625 -15.894531 119.21875 -12.800781 118.8125 -9.875 C 118.40625 -6.957031 117.113281 -4.410156 114.9375 -2.234375 C 112.769531 -0.0664062 110.15625 1.457031 107.09375 2.34375 C 104.039062 3.226562 100.914062 3.226562 97.71875 2.34375 C 94.53125 1.457031 91.78125 -0.546875 89.46875 -3.671875 C 83.351562 -12.085938 76.523438 -19.828125 68.984375 -26.890625 C 61.441406 -33.960938 53.320312 -40.351562 44.625 -46.0625 C 43.945312 -38.039062 43.300781 -29.988281 42.6875 -21.90625 C 42.082031 -13.820312 41.441406 -5.773438 40.765625 2.234375 C 40.492188 6.179688 39.234375 9.304688 36.984375 11.609375 C 34.742188 13.921875 32.0625 15.484375 28.9375 16.296875 C 25.8125 17.117188 22.785156 17.15625 19.859375 16.40625 C 16.941406 15.65625 14.53125 14.09375 12.625 11.71875 C 10.726562 9.34375 9.914062 6.179688 10.1875 2.234375 C 11.414062 -12.566406 12.367188 -27.644531 13.046875 -43 C 13.722656 -58.351562 15.554688 -73.367188 18.546875 -88.046875 C 20.035156 -95.648438 22.816406 -102.984375 26.890625 -110.046875 C 30.972656 -117.109375 36.171875 -122.945312 42.484375 -127.5625 C 48.804688 -132.1875 56.179688 -134.707031 64.609375 -135.125 C 70.441406 -135.394531 75.972656 -134.304688 81.203125 -131.859375 C 86.441406 -129.410156 90.894531 -126.007812 94.5625 -121.65625 C 98.226562 -117.3125 100.707031 -112.421875 102 -106.984375 C 103.289062 -101.554688 102.984375 -95.921875 101.078125 -90.078125 C 99.179688 -84.234375 96.09375 -78.726562 91.8125 -73.5625 C 87.53125 -68.40625 82.601562 -63.925781 77.03125 -60.125 C 91.570312 -48.300781 104.546875 -34.644531 115.953125 -19.15625 Z M 61.34375 -87.015625 C 62.15625 -87.835938 63.507812 -89.097656 65.40625 -90.796875 C 67.3125 -92.492188 69.007812 -94.289062 70.5 -96.1875 C 72 -98.09375 72.613281 -99.585938 72.34375 -100.671875 C 71.800781 -103.523438 70.75 -105.085938 69.1875 -105.359375 C 67.625 -105.628906 65.859375 -105.1875 63.890625 -104.03125 C 61.921875 -102.882812 59.984375 -101.320312 58.078125 -99.34375 C 56.179688 -97.375 54.550781 -95.503906 53.1875 -93.734375 C 51.832031 -91.972656 50.953125 -90.6875 50.546875 -89.875 C 49.453125 -86.75 48.5 -83.351562 47.6875 -79.6875 C 50.40625 -80.09375 52.847656 -80.941406 55.015625 -82.234375 C 57.191406 -83.523438 59.300781 -85.117188 61.34375 -87.015625 Z M 61.34375 -87.015625 "/></g></g><g style="fill:#3b2f24;fill-opacity:1;"><g transform="translate(380.217303, 334.884998)"><path style="stroke:none" d="M 84.984375 -43 C 88.921875 -42.863281 92.078125 -41.707031 94.453125 -39.53125 C 96.835938 -37.363281 98.398438 -34.75 99.140625 -31.6875 C 99.890625 -28.632812 99.890625 -25.613281 99.140625 -22.625 C 98.398438 -19.632812 96.835938 -17.15625 94.453125 -15.1875 C 92.078125 -13.21875 88.921875 -12.300781 84.984375 -12.4375 C 75.742188 -12.84375 66.503906 -12.804688 57.265625 -12.328125 C 48.023438 -11.847656 38.785156 -10.863281 29.546875 -9.375 C 26.691406 -8.96875 23.703125 -9.269531 20.578125 -10.28125 C 17.453125 -11.300781 14.835938 -12.96875 12.734375 -15.28125 C 10.628906 -17.59375 9.847656 -20.582031 10.390625 -24.25 C 12.703125 -43 15.25 -61.75 18.03125 -80.5 C 20.820312 -99.25 23.847656 -118 27.109375 -136.75 C 27.515625 -139.0625 28.328125 -141.03125 29.546875 -142.65625 C 30.640625 -144.5625 32.203125 -146.160156 34.234375 -147.453125 C 36.273438 -148.742188 38.789062 -149.457031 41.78125 -149.59375 C 56.445312 -150 71.117188 -149.722656 85.796875 -148.765625 C 89.734375 -148.492188 92.890625 -147.238281 95.265625 -145 C 97.648438 -142.757812 99.210938 -140.109375 99.953125 -137.046875 C 100.703125 -133.992188 100.703125 -130.972656 99.953125 -127.984375 C 99.210938 -124.992188 97.648438 -122.546875 95.265625 -120.640625 C 92.890625 -118.742188 89.734375 -117.929688 85.796875 -118.203125 C 75.742188 -118.878906 65.488281 -119.21875 55.03125 -119.21875 C 54.34375 -115.28125 53.660156 -111.335938 52.984375 -107.390625 C 52.304688 -103.453125 51.695312 -99.515625 51.15625 -95.578125 C 56.726562 -95.441406 62.09375 -95.101562 67.25 -94.5625 C 71.320312 -94.15625 74.882812 -92.625 77.9375 -89.96875 C 81 -87.320312 82.53125 -83.757812 82.53125 -79.28125 C 82.53125 -76.695312 81.816406 -74.179688 80.390625 -71.734375 C 78.972656 -69.285156 77.109375 -67.3125 74.796875 -65.8125 C 72.484375 -64.320312 69.96875 -63.71875 67.25 -64 C 60.320312 -64.675781 53.394531 -65.015625 46.46875 -65.015625 C 45.925781 -61.210938 45.378906 -57.335938 44.828125 -53.390625 C 44.285156 -49.453125 43.742188 -45.582031 43.203125 -41.78125 C 50.128906 -42.457031 57.054688 -42.894531 63.984375 -43.09375 C 70.921875 -43.300781 77.921875 -43.269531 84.984375 -43 Z M 84.984375 -43 "/></g></g><g style="fill:#3b2f24;fill-opacity:1;"><g transform="translate(474.147348, 334.884998)"><path style="stroke:none" d="M 84.984375 -43 C 88.921875 -42.863281 92.078125 -41.707031 94.453125 -39.53125 C 96.835938 -37.363281 98.398438 -34.75 99.140625 -31.6875 C 99.890625 -28.632812 99.890625 -25.613281 99.140625 -22.625 C 98.398438 -19.632812 96.835938 -17.15625 94.453125 -15.1875 C 92.078125 -13.21875 88.921875 -12.300781 84.984375 -12.4375 C 75.742188 -12.84375 66.503906 -12.804688 57.265625 -12.328125 C 48.023438 -11.847656 38.785156 -10.863281 29.546875 -9.375 C 26.691406 -8.96875 23.703125 -9.269531 20.578125 -10.28125 C 17.453125 -11.300781 14.835938 -12.96875 12.734375 -15.28125 C 10.628906 -17.59375 9.847656 -20.582031 10.390625 -24.25 C 12.703125 -43 15.25 -61.75 18.03125 -80.5 C 20.820312 -99.25 23.847656 -118 27.109375 -136.75 C 27.515625 -139.0625 28.328125 -141.03125 29.546875 -142.65625 C 30.640625 -144.5625 32.203125 -146.160156 34.234375 -147.453125 C 36.273438 -148.742188 38.789062 -149.457031 41.78125 -149.59375 C 56.445312 -150 71.117188 -149.722656 85.796875 -148.765625 C 89.734375 -148.492188 92.890625 -147.238281 95.265625 -145 C 97.648438 -142.757812 99.210938 -140.109375 99.953125 -137.046875 C 100.703125 -133.992188 100.703125 -130.972656 99.953125 -127.984375 C 99.210938 -124.992188 97.648438 -122.546875 95.265625 -120.640625 C 92.890625 -118.742188 89.734375 -117.929688 85.796875 -118.203125 C 75.742188 -118.878906 65.488281 -119.21875 55.03125 -119.21875 C 54.34375 -115.28125 53.660156 -111.335938 52.984375 -107.390625 C 52.304688 -103.453125 51.695312 -99.515625 51.15625 -95.578125 C 56.726562 -95.441406 62.09375 -95.101562 67.25 -94.5625 C 71.320312 -94.15625 74.882812 -92.625 77.9375 -89.96875 C 81 -87.320312 82.53125 -83.757812 82.53125 -79.28125 C 82.53125 -76.695312 81.816406 -74.179688 80.390625 -71.734375 C 78.972656 -69.285156 77.109375 -67.3125 74.796875 -65.8125 C 72.484375 -64.320312 69.96875 -63.71875 67.25 -64 C 60.320312 -64.675781 53.394531 -65.015625 46.46875 -65.015625 C 45.925781 -61.210938 45.378906 -57.335938 44.828125 -53.390625 C 44.285156 -49.453125 43.742188 -45.582031 43.203125 -41.78125 C 50.128906 -42.457031 57.054688 -42.894531 63.984375 -43.09375 C 70.921875 -43.300781 77.921875 -43.269531 84.984375 -43 Z M 84.984375 -43 "/></g></g><g style="fill:#3b2f24;fill-opacity:1;"><g transform="translate(568.077393, 334.884998)"><path style="stroke:none" d="M 92.9375 -140.015625 C 96.738281 -139.460938 99.789062 -138.03125 102.09375 -135.71875 C 104.40625 -133.414062 105.96875 -130.703125 106.78125 -127.578125 C 107.601562 -124.453125 107.601562 -121.394531 106.78125 -118.40625 C 105.96875 -115.414062 104.40625 -113.070312 102.09375 -111.375 C 99.789062 -109.675781 96.738281 -109.03125 92.9375 -109.4375 C 86.6875 -110.25 80.160156 -110.859375 73.359375 -111.265625 C 72.410156 -96.460938 71.492188 -81.65625 70.609375 -66.84375 C 69.734375 -52.03125 68.816406 -37.15625 67.859375 -22.21875 C 67.722656 -18.40625 66.535156 -15.3125 64.296875 -12.9375 C 62.054688 -10.5625 59.40625 -8.960938 56.34375 -8.140625 C 53.289062 -7.328125 50.269531 -7.328125 47.28125 -8.140625 C 44.289062 -8.960938 41.84375 -10.523438 39.9375 -12.828125 C 38.039062 -15.140625 37.160156 -18.269531 37.296875 -22.21875 C 38.242188 -37.15625 39.160156 -52.0625 40.046875 -66.9375 C 40.929688 -81.820312 41.847656 -96.738281 42.796875 -111.6875 C 36.679688 -111.40625 30.703125 -110.992188 24.859375 -110.453125 C 20.921875 -110.046875 17.757812 -110.757812 15.375 -112.59375 C 13 -114.425781 11.4375 -116.835938 10.6875 -119.828125 C 9.945312 -122.816406 9.984375 -125.835938 10.796875 -128.890625 C 11.617188 -131.953125 13.179688 -134.640625 15.484375 -136.953125 C 17.796875 -139.265625 20.921875 -140.625 24.859375 -141.03125 C 47.546875 -143.332031 70.238281 -142.992188 92.9375 -140.015625 Z M 92.9375 -140.015625 "/></g></g></g></svg>